# xmcd
#
# Track frame offsets:
#	150
#	13452
#	26090
#	37960
#	51054
#	63935
#	75442
#	87977
#	99907
#	111876
#	124178
#	135841
#	148116
#	160208
#	172497
#	184690
#	196594
#	209496
#	222115
#	236321
#	250522
#	263017
#	277029
#	291604
#
# Disc length: 4069 seconds
#
# Revision: 0
# Processed by: cddbd v1.4PL0 Copyright (c) Steve Scherf et al.
# Submitted via: EasyCDDAExtractor 5.0.5.1
#
DISCID=580fe318
DTITLE=Da Costa Woltz's Southern Broadcasters and Frank jenkins' Pilot Mountaine
DTITLE=ers - Complete Recorded Works In Chronological Order 1927-1929
DYEAR=1998
DGENRE=Country
TTITLE0=Merry Girl
TTITLE1=Yellow Rose of Texas
TTITLE2=Lonesome Road Blues
TTITLE3=Richmond Cotillion
TTITLE4=Are You Washed In The Blood Of The Lamb
TTITLE5=Home Sweet Home (Frank Jenkins)
TTITLE6=Baptist Shout (Frank Jenkins)
TTITLE7=Be Kind To A Man When He Is Down
TTITLE8=Lost Train Blues
TTITLE9=I Know My Name Is There
TTITLE10=When You Ask A Girl To Leave Her Happy Home
TTITLE11=Take Me Back To The Sweet Sunny South
TTITLE12=John Brown's Dream
TTITLE13=Old Joe Clark
TTITLE14=Evening Star Waltz
TTITLE15=Jack Of Diamonds
TTITLE16=Roving Cowboy (Frank Jenkins)
TTITLE17=Wandering Boy (Frank Jenkins)
TTITLE18=The Railroad Flagman's Sweetheart
TTITLE19=When The Snowflakes Fall Again
TTITLE20=The Burial Of Wild Bill
TTITLE21=A Message From Hoem Sweet Home
TTITLE22=Sunny Home In Dixie
TTITLE23=Old Dad
EXTD=
EXTT0=
EXTT1=
EXTT2=
EXTT3=
EXTT4=
EXTT5=
EXTT6=
EXTT7=
EXTT8=
EXTT9=
EXTT10=
EXTT11=
EXTT12=
EXTT13=
EXTT14=
EXTT15=
EXTT16=
EXTT17=
EXTT18=
EXTT19=
EXTT20=
EXTT21=
EXTT22=
EXTT23=
PLAYORDER=
